<svg xmlns="http://www.w3.org/2000/svg" width="92" height="92" viewBox="0 0 92 92" role="img" aria-label="AIBOS mark">
  <rect x="0" y="0" width="16" height="16" rx="2" fill="#1A1815" fill-opacity="0.92"></rect>
  <rect x="19" y="0" width="16" height="16" rx="2" fill="#1A1815" fill-opacity="0.92"></rect>
  <rect x="38" y="0" width="16" height="16" rx="2" fill="#1A1815" fill-opacity="0.92"></rect>
  <rect x="57" y="0" width="16" height="16" rx="2" fill="#1A1815" fill-opacity="0.92"></rect>
  <rect x="76" y="0" width="16" height="16" rx="2" fill="#1A1815" fill-opacity="0.92"></rect>
  <rect x="0" y="19" width="16" height="16" rx="2" fill="#1A1815" fill-opacity="0.92"></rect>
  <rect x="19" y="19" width="16" height="16" rx="2" fill="#1A1815" fill-opacity="0.92"></rect>
  <rect x="38" y="19" width="16" height="16" rx="2" fill="#1A1815" fill-opacity="0.92"></rect>
  <rect x="57" y="19" width="16" height="16" rx="2" fill="#1A1815" fill-opacity="0.92"></rect>
  <rect x="76" y="19" width="16" height="16" rx="2" fill="#1A1815" fill-opacity="0.92"></rect>
  <rect x="0" y="38" width="16" height="16" rx="2" fill="#1A1815" fill-opacity="0.92"></rect>
  <rect x="19" y="38" width="16" height="16" rx="2" fill="#1A1815" fill-opacity="0.92"></rect>
  <rect x="38" y="38" width="16" height="16" rx="2" fill="#10A862"></rect>
  <rect x="57" y="38" width="16" height="16" rx="2" fill="#1A1815" fill-opacity="0.92"></rect>
  <rect x="76" y="38" width="16" height="16" rx="2" fill="#1A1815" fill-opacity="0.92"></rect>
  <rect x="0" y="57" width="16" height="16" rx="2" fill="#1A1815" fill-opacity="0.92"></rect>
  <rect x="19" y="57" width="16" height="16" rx="2" fill="#1A1815" fill-opacity="0.92"></rect>
  <rect x="38" y="57" width="16" height="16" rx="2" fill="#1A1815" fill-opacity="0.92"></rect>
  <rect x="57" y="57" width="16" height="16" rx="2" fill="#1A1815" fill-opacity="0.92"></rect>
  <rect x="76" y="57" width="16" height="16" rx="2" fill="#1A1815" fill-opacity="0.92"></rect>
  <rect x="0" y="76" width="16" height="16" rx="2" fill="#1A1815" fill-opacity="0.92"></rect>
  <rect x="19" y="76" width="16" height="16" rx="2" fill="#1A1815" fill-opacity="0.92"></rect>
  <rect x="38" y="76" width="16" height="16" rx="2" fill="#1A1815" fill-opacity="0.92"></rect>
  <rect x="57" y="76" width="16" height="16" rx="2" fill="#1A1815" fill-opacity="0.92"></rect>
  <rect x="76" y="76" width="16" height="16" rx="2" fill="#1A1815" fill-opacity="0.92"></rect>
</svg>