<svg xmlns="http://www.w3.org/2000/svg" width="64" height="64" viewBox="0 0 64 64">
  <rect width="64" height="64" rx="14" fill="#0F0E0C"></rect>
  <rect x="14.00" y="14.00" width="6.26" height="6.26" rx="1.5" fill="#F3F3F0" fill-opacity="0.9"></rect>
  <rect x="21.43" y="14.00" width="6.26" height="6.26" rx="1.5" fill="#F3F3F0" fill-opacity="0.9"></rect>
  <rect x="28.87" y="14.00" width="6.26" height="6.26" rx="1.5" fill="#F3F3F0" fill-opacity="0.9"></rect>
  <rect x="36.30" y="14.00" width="6.26" height="6.26" rx="1.5" fill="#F3F3F0" fill-opacity="0.9"></rect>
  <rect x="43.74" y="14.00" width="6.26" height="6.26" rx="1.5" fill="#F3F3F0" fill-opacity="0.9"></rect>
  <rect x="14.00" y="21.43" width="6.26" height="6.26" rx="1.5" fill="#F3F3F0" fill-opacity="0.9"></rect>
  <rect x="21.43" y="21.43" width="6.26" height="6.26" rx="1.5" fill="#F3F3F0" fill-opacity="0.9"></rect>
  <rect x="28.87" y="21.43" width="6.26" height="6.26" rx="1.5" fill="#F3F3F0" fill-opacity="0.9"></rect>
  <rect x="36.30" y="21.43" width="6.26" height="6.26" rx="1.5" fill="#F3F3F0" fill-opacity="0.9"></rect>
  <rect x="43.74" y="21.43" width="6.26" height="6.26" rx="1.5" fill="#F3F3F0" fill-opacity="0.9"></rect>
  <rect x="14.00" y="28.87" width="6.26" height="6.26" rx="1.5" fill="#F3F3F0" fill-opacity="0.9"></rect>
  <rect x="21.43" y="28.87" width="6.26" height="6.26" rx="1.5" fill="#F3F3F0" fill-opacity="0.9"></rect>
  <rect x="28.87" y="28.87" width="6.26" height="6.26" rx="1.5" fill="#25C277"></rect>
  <rect x="36.30" y="28.87" width="6.26" height="6.26" rx="1.5" fill="#F3F3F0" fill-opacity="0.9"></rect>
  <rect x="43.74" y="28.87" width="6.26" height="6.26" rx="1.5" fill="#F3F3F0" fill-opacity="0.9"></rect>
  <rect x="14.00" y="36.30" width="6.26" height="6.26" rx="1.5" fill="#F3F3F0" fill-opacity="0.9"></rect>
  <rect x="21.43" y="36.30" width="6.26" height="6.26" rx="1.5" fill="#F3F3F0" fill-opacity="0.9"></rect>
  <rect x="28.87" y="36.30" width="6.26" height="6.26" rx="1.5" fill="#F3F3F0" fill-opacity="0.9"></rect>
  <rect x="36.30" y="36.30" width="6.26" height="6.26" rx="1.5" fill="#F3F3F0" fill-opacity="0.9"></rect>
  <rect x="43.74" y="36.30" width="6.26" height="6.26" rx="1.5" fill="#F3F3F0" fill-opacity="0.9"></rect>
  <rect x="14.00" y="43.74" width="6.26" height="6.26" rx="1.5" fill="#F3F3F0" fill-opacity="0.9"></rect>
  <rect x="21.43" y="43.74" width="6.26" height="6.26" rx="1.5" fill="#F3F3F0" fill-opacity="0.9"></rect>
  <rect x="28.87" y="43.74" width="6.26" height="6.26" rx="1.5" fill="#F3F3F0" fill-opacity="0.9"></rect>
  <rect x="36.30" y="43.74" width="6.26" height="6.26" rx="1.5" fill="#F3F3F0" fill-opacity="0.9"></rect>
  <rect x="43.74" y="43.74" width="6.26" height="6.26" rx="1.5" fill="#F3F3F0" fill-opacity="0.9"></rect>
</svg>